<?xml version="1.0"?><svg width="1000" height="1000" xmlns="http://www.w3.org/2000/svg">

 <metadata id="metadata7">image/svg+xml</metadata>
 <g>
  <title>Layer 1</title>
  <g id="layer1">
   <g id="g25056">
    <rect fill="#ffff00" stroke="#000000" stroke-width="4.702248" stroke-linejoin="round" stroke-miterlimit="4" stroke-dashoffset="0" id="rect1336" width="138.09131" height="138.10146" x="-68.983046" y="72.370604" transform="matrix(3.59799 -3.5948 3.5948 3.59799 -9.60677 -9.60687)"/>
    <g id="g7457" transform="matrix(2.26045 0 0 2.26044 784.085 1191.5)">
     <path style="vector-effect: non-scaling-stroke; " fill="#000000" fill-rule="evenodd" stroke="#000000" stroke-width="1px" id="path2224" d="m-153.083893,-212.014435l134.922607,0c-7.11618,-19.07135 -15.708954,-5.793396 -25.333588,-16.794159c-1.745972,-21.768707 -17.363434,-23.056396 -17.363434,-23.056396c-15.940216,-14.232361 -13.358154,-11.275543 -21.063904,-11.385895c-20.494568,-0.284637 -19.875946,26.793091 -36.719421,26.187531c-16.794159,-0.569305 -13.09375,16.509491 -34.442261,25.04892z"/>
     <path style="vector-effect: non-scaling-stroke; " fill="none" fill-opacity="0.75" fill-rule="evenodd" stroke="#000000" stroke-width="22" stroke-linecap="round" stroke-miterlimit="4" id="path3113" d="m-222.822388,-222.831024l11.101227,-48.105316l1.280914,-41.060303"/>
     <path style="vector-effect: non-scaling-stroke; " fill="none" fill-opacity="0.75" fill-rule="evenodd" stroke="#000000" stroke-width="22" stroke-linecap="round" stroke-miterlimit="4" id="path3988" d="m-184.964355,-222.831024l23.056396,-48.105316l-23.056396,-37.288727l-13.378387,-9.393341"/>
     <path style="vector-effect: non-scaling-stroke; " fill="#000000" fill-rule="evenodd" stroke="#000000" stroke-width="1px" id="path4875" d="m-217.129456,-320.180237l53.940582,-58.067963c0,0 1.494385,-1.85022 6.973846,-1.85022l28.180054,33.161377l-50.097839,31.311157l-38.996643,-4.554352z"/>
     <path style="vector-effect: non-scaling-stroke; " fill="none" fill-opacity="0.75" fill-rule="evenodd" stroke="#000000" stroke-width="14" stroke-linecap="round" stroke-miterlimit="4" id="path5758" d="m-161.480988,-376.326843l-34.869232,0.355835l-14.588165,31.23999"/>
     <path style="vector-effect: non-scaling-stroke; " fill="none" fill-opacity="0.75" fill-rule="evenodd" stroke="#000000" stroke-width="14" stroke-linecap="round" stroke-miterlimit="4" id="path6637" d="m-158.421051,-303.386078l25.265381,-39.545685"/>
     <path style="vector-effect: non-scaling-stroke; " fill="none" fill-opacity="0.75" fill-rule="evenodd" stroke="#000000" stroke-width="6" stroke-linecap="round" stroke-miterlimit="4" id="path1334" d="m-218.339203,-356.330383l118.484253,109.873688l0,0"/>
     <path style="vector-effect: non-scaling-stroke; " fill="#000000" stroke="#000000" stroke-width="6" stroke-linecap="round" stroke-linejoin="round" stroke-miterlimit="4" stroke-dashoffset="0" d="m-105.547874,-380.809998a17.07881,17.07881 0 1 1 -34.157646,0a17.07881,17.07881 0 1 1 34.157646,0z" id="path3082"/>
    </g>
   </g>
  </g>
 </g>
</svg>